<svg width="20" height="21" viewBox="0 0 20 21" fill="none" xmlns="http://www.w3.org/2000/svg">
<path d="M7.47222 20.5037H3.33395C2.44973 20.5037 1.60173 20.1525 0.976493 19.5272C0.351255 18.902 0 18.054 0 17.1698V13.0023C0 12.1181 0.351255 11.2701 0.976493 10.6449C1.60173 10.0196 2.44973 9.66837 3.33395 9.66837H10.7162C11.1672 9.66859 11.6106 9.78524 12.0034 10.007C12.3962 10.2288 12.7251 10.5483 12.9582 10.9344L15.6396 7.98806C15.8614 7.74417 16.129 7.54639 16.4273 7.406C16.7256 7.26562 17.0486 7.1854 17.3779 7.16991C17.7071 7.15443 18.0363 7.204 18.3464 7.31578C18.6565 7.42756 18.9415 7.59936 19.1852 7.82136C19.6715 8.26805 19.9629 8.8878 19.9967 9.5472C20.0305 10.2066 19.8041 10.8529 19.3661 11.347L13.6984 17.7124C12.9158 18.59 11.9566 19.2924 10.8836 19.7735C9.81065 20.2545 8.64811 20.5034 7.47222 20.5037ZM3.33395 11.3354C2.89184 11.3354 2.46784 11.511 2.15522 11.8236C1.8426 12.1362 1.66698 12.5602 1.66698 13.0023V17.1698C1.66698 17.6119 1.8426 18.0359 2.15522 18.3485C2.46784 18.6611 2.89184 18.8367 3.33395 18.8367H7.47222C8.41233 18.8364 9.34175 18.6373 10.1996 18.2527C11.0574 17.868 11.8242 17.3064 12.4498 16.6047L18.1217 10.2385C18.269 10.0726 18.3452 9.85554 18.334 9.63401C18.3227 9.41249 18.225 9.20423 18.0617 9.05409C17.8957 8.90483 17.678 8.8262 17.4549 8.83488C17.3443 8.83956 17.2358 8.86622 17.1356 8.9133C17.0354 8.96038 16.9456 9.02695 16.8715 9.1091L13.1825 13.169C13.0205 13.6172 12.7399 14.0131 12.3705 14.3143C12.0012 14.6155 11.557 14.8108 11.0854 14.8793L6.78376 15.4945C6.56492 15.5258 6.34257 15.469 6.16563 15.3365C5.98868 15.2039 5.87164 15.0065 5.84025 14.7877C5.80886 14.5688 5.8657 14.3465 5.99825 14.1695C6.1308 13.9926 6.32821 13.8755 6.54705 13.8442L10.8495 13.2299C11.0883 13.1965 11.3056 13.0737 11.4574 12.8863C11.6092 12.6989 11.6842 12.4609 11.6672 12.2204C11.6503 11.9798 11.5427 11.7546 11.3662 11.5904C11.1896 11.4261 10.9573 11.335 10.7162 11.3354H3.33395ZM9.16837 8.06307C8.7906 8.06409 8.42385 7.93586 8.12901 7.69967C6.70208 6.55446 5.00093 4.83414 5.00093 3.16716C4.98047 2.48234 5.23204 1.81728 5.70063 1.31746C6.16922 0.817629 6.81668 0.523715 7.5014 0.5C8.1243 0.502426 8.72193 0.746561 9.16837 1.18096C9.61481 0.746561 10.2124 0.502426 10.8354 0.5C11.5201 0.523715 12.1675 0.817629 12.6361 1.31746C13.1047 1.81728 13.3563 2.48234 13.3358 3.16716C13.3358 4.83414 11.6347 6.55446 10.2069 7.70051C9.91218 7.93621 9.54576 8.06414 9.16837 8.06307ZM7.5014 2.16698C7.25914 2.19128 7.0361 2.30969 6.88024 2.49672C6.72437 2.68376 6.64813 2.9245 6.66791 3.16716C6.66791 3.9173 7.62725 5.1592 9.17337 6.40026C10.7095 5.1592 11.6688 3.9173 11.6688 3.16716C11.6886 2.9245 11.6124 2.68376 11.4565 2.49672C11.3006 2.30969 11.0776 2.19128 10.8354 2.16698C10.5931 2.19128 10.3701 2.30969 10.2142 2.49672C10.0583 2.68376 9.98209 2.9245 10.0019 3.16716C10.0019 3.38822 9.91405 3.60022 9.75774 3.75653C9.60143 3.91284 9.38943 4.00065 9.16837 4.00065C8.94732 4.00065 8.73532 3.91284 8.57901 3.75653C8.4227 3.60022 8.33488 3.38822 8.33488 3.16716C8.35466 2.9245 8.27842 2.68376 8.12255 2.49672C7.96669 2.30969 7.74365 2.19128 7.5014 2.16698Z" fill="black"/>
</svg>
