<svg width="18" height="22" viewBox="0 0 18 22" fill="none" xmlns="http://www.w3.org/2000/svg">
<path fill-rule="evenodd" clip-rule="evenodd" d="M9.53366 0.938028C9.53366 0.419969 9.12081 0 8.61152 0C8.10224 0 7.68939 0.419969 7.68939 0.938028V2.21375C7.68939 2.24141 7.69057 2.2688 7.69287 2.29586C6.39047 2.49802 5.15954 3.05447 4.13419 3.9142C2.87118 4.9732 1.99268 6.43151 1.63851 8.05704L0.0560761 15.3011C-0.0204939 15.6521 -0.0186262 16.016 0.0615414 16.3661C0.141709 16.7163 0.298131 17.0436 0.519266 17.324C0.740401 17.6044 1.02061 17.8308 1.33921 17.9863C1.65782 18.1419 2.00669 18.2227 2.36009 18.2228H5.19839C5.379 19.1275 5.86153 19.9409 6.56423 20.5252C7.26693 21.1094 8.14659 21.4286 9.05415 21.4286C9.96171 21.4286 10.8414 21.1094 11.5441 20.5252C12.2468 19.9409 12.7293 19.1275 12.9099 18.2228H15.6404C16.004 18.2226 16.3627 18.137 16.6885 17.9726C17.0142 17.8082 17.2982 17.5695 17.5183 17.2751C17.7385 16.9806 17.8887 16.6385 17.9575 16.2752C18.0262 15.912 18.0115 15.5375 17.9145 15.181H17.9137L15.8678 7.68002C15.4309 6.07546 14.479 4.66564 13.1635 3.67496C12.0972 2.87197 10.8418 2.38174 9.53306 2.2479C9.53346 2.23656 9.53366 2.22518 9.53366 2.21375V0.938028ZM7.697 19.3801C8.09365 19.6667 8.56765 19.8216 9.05415 19.8237C9.54065 19.8216 10.0146 19.6667 10.4113 19.3801C10.8079 19.0936 11.1079 18.6893 11.27 18.2228H6.83827C7.00043 18.6893 7.30036 19.0936 7.697 19.3801ZM15.9881 16.5397C16.0974 16.4848 16.1926 16.4047 16.266 16.3057C16.3392 16.2073 16.3889 16.093 16.4112 15.9717C16.4335 15.8504 16.4277 15.7255 16.3942 15.6069L14.3483 8.10586C14.0042 6.84671 13.2562 5.74071 12.2232 4.96367C11.1902 4.18663 9.93147 3.78315 8.64715 3.81738C7.36283 3.85161 6.12661 4.32157 5.13502 5.15256C4.14342 5.98355 3.45335 7.12788 3.17452 8.40363L1.59208 15.6477C1.56651 15.7647 1.5671 15.8861 1.5938 16.0028C1.62051 16.1195 1.67264 16.2287 1.74636 16.3222C1.82007 16.4157 1.91349 16.4912 2.01972 16.543C2.12594 16.5949 2.24226 16.6218 2.36009 16.6219H15.6365C15.7584 16.6228 15.8788 16.5946 15.9881 16.5397Z" fill="#000"/>
</svg>
