<svg width="23" height="19" viewBox="0 0 23 19" fill="none" xmlns="http://www.w3.org/2000/svg">
<path d="M7.475 0.5C11.6042 0.5 14.95 3.33188 14.95 6.825C14.95 10.3181 11.6042 13.15 7.475 13.15C6.80297 13.15 6.1525 13.0673 5.53078 12.9272C4.43109 13.61 2.84373 14.3 0.896641 14.3C0.537984 14.3 0.213109 14.088 0.0725219 13.7573C-0.0681375 13.4267 -0.000265926 13.0458 0.242183 12.787C0.260906 12.7727 1.05584 11.9066 1.64342 10.7745C0.617406 9.69281 0 8.32 0 6.825C0 3.33188 3.34686 0.5 7.475 0.5ZM5.91531 11.213C6.44 11.3639 6.96469 11.425 7.475 11.425C10.6447 11.425 13.225 9.36219 13.225 6.825C13.225 4.28781 10.6447 2.225 7.475 2.225C4.30531 2.225 1.725 4.28781 1.725 6.825C1.725 8.09 2.36145 9.02437 2.89548 9.58859L3.74109 10.4834L3.17364 11.5723C3.04534 11.788 2.90123 12.0683 2.75102 12.3055C3.38747 12.1222 4.01422 11.8383 4.62516 11.4286L5.22531 11.0872L5.91531 11.213ZM15.87 5.10719C19.8375 5.25812 23 8.02891 23 11.425C23 12.92 22.3819 14.2928 21.3577 15.3745C21.9434 16.5066 22.7377 17.3727 22.7592 17.387C23 17.6458 23.0683 18.0267 22.8958 18.3573C22.788 18.688 22.4609 18.9 22.1016 18.9C20.1573 18.9 18.5689 18.21 17.4692 17.5272C16.8475 17.6673 16.197 17.75 15.525 17.75C12.5781 17.75 10.0302 16.3053 8.81188 14.2102C9.43359 14.1275 10.0302 13.9873 10.598 13.7933C11.6042 15.1302 13.437 16.025 15.525 16.025C16.0353 16.025 16.56 15.9639 17.0847 15.813L17.7747 15.6872L18.3748 16.0286C18.9858 16.4383 19.6111 16.7222 20.2508 16.9055C20.0998 16.6683 19.9561 16.388 19.8267 16.1723L19.2589 15.0834L20.1034 14.1886C20.6389 13.628 21.275 12.69 21.275 11.425C21.275 9.04234 19.0002 7.08016 16.0677 6.84656L16.1 6.825C16.1 6.23203 16.0209 5.65703 15.87 5.10719Z" fill="black"/>
</svg>
