<svg width="18" height="18" viewBox="0 0 18 18" fill="none" xmlns="http://www.w3.org/2000/svg">
<path d="M18 12.0005V15.7505C18 16.3472 17.7629 16.9195 17.341 17.3415C16.919 17.7634 16.3467 18.0005 15.75 18.0005H12C10.9478 17.9994 9.91443 17.7216 9.00349 17.1951C8.09255 16.6685 7.33609 15.9117 6.81 15.0005C7.3754 14.9964 7.93888 14.9341 8.4915 14.8145C8.91236 15.3407 9.44625 15.7655 10.0536 16.0573C10.6609 16.3492 11.3262 16.5007 12 16.5005H15.75C15.9489 16.5005 16.1397 16.4214 16.2803 16.2808C16.421 16.1401 16.5 15.9494 16.5 15.7505V12.0005C16.4998 11.3264 16.3479 10.661 16.0555 10.0536C15.7631 9.44628 15.3378 8.91253 14.811 8.49197C14.9316 7.93945 14.995 7.37597 15 6.81047C15.9112 7.33656 16.6681 8.09301 17.1946 9.00396C17.7212 9.9149 17.9989 10.9483 18 12.0005ZM13.4827 7.23872C13.5529 6.27245 13.4142 5.3024 13.0761 4.39449C12.7381 3.48658 12.2085 2.66208 11.5234 1.97703C10.8384 1.29198 10.0139 0.762416 9.10598 0.424334C8.19807 0.0862522 7.22802 -0.0524283 6.26175 0.017716C4.54944 0.213265 2.96769 1.0281 1.81438 2.30877C0.66107 3.58945 0.0157704 5.2476 0 6.97097L0 10.751C0 12.65 1.13025 13.5005 2.25 13.5005H6.525C8.2491 13.4856 9.90826 12.8408 11.1898 11.6874C12.4714 10.534 13.2869 8.95173 13.4827 7.23872ZM10.4625 3.03872C10.995 3.57234 11.4066 4.21412 11.6695 4.92061C11.9324 5.6271 12.0405 6.38182 11.9865 7.13372C11.8264 8.47147 11.1829 9.70458 10.177 10.6009C9.17112 11.4973 7.87229 11.995 6.525 12.0005H2.25C1.554 12.0005 1.5 11.0442 1.5 10.751V6.97097C1.50625 5.62425 2.00449 4.32624 2.90094 3.32122C3.79739 2.3162 5.03025 1.67347 6.3675 1.51397C6.492 1.50497 6.6165 1.50047 6.741 1.50047C7.43195 1.49982 8.11626 1.63534 8.75481 1.89928C9.39337 2.16322 9.97365 2.55041 10.4625 3.03872Z" fill="#ACACAC"/>
</svg>
