<svg width="20" height="17" viewBox="0 0 20 17" fill="none" xmlns="http://www.w3.org/2000/svg">
<path d="M14.125 0.437744C13.2805 0.45088 12.4543 0.686634 11.7301 1.1212C11.0058 1.55576 10.409 2.17375 10 2.91274C9.59098 2.17375 8.9942 1.55576 8.26993 1.1212C7.54565 0.686634 6.71954 0.45088 5.875 0.437744C4.5287 0.496237 3.26028 1.08518 2.34684 2.07592C1.43339 3.06665 0.949186 4.37864 0.999999 5.72524C0.999999 9.13549 4.5895 12.86 7.6 15.3852C8.27216 15.9501 9.12201 16.2598 10 16.2598C10.878 16.2598 11.7278 15.9501 12.4 15.3852C15.4105 12.86 19 9.13549 19 5.72524C19.0508 4.37864 18.5666 3.06665 17.6532 2.07592C16.7397 1.08518 15.4713 0.496237 14.125 0.437744ZM11.4362 14.2377C11.0342 14.5763 10.5256 14.7619 10 14.7619C9.47443 14.7619 8.96576 14.5763 8.56375 14.2377C4.71025 11.0045 2.5 7.90249 2.5 5.72524C2.44873 4.77628 2.77477 3.84554 3.40702 3.13602C4.03927 2.4265 4.92642 1.99576 5.875 1.93774C6.82357 1.99576 7.71073 2.4265 8.34298 3.13602C8.97522 3.84554 9.30127 4.77628 9.25 5.72524C9.25 5.92416 9.32902 6.11492 9.46967 6.25557C9.61032 6.39623 9.80109 6.47524 10 6.47524C10.1989 6.47524 10.3897 6.39623 10.5303 6.25557C10.671 6.11492 10.75 5.92416 10.75 5.72524C10.6987 4.77628 11.0248 3.84554 11.657 3.13602C12.2893 2.4265 13.1764 1.99576 14.125 1.93774C15.0736 1.99576 15.9607 2.4265 16.593 3.13602C17.2252 3.84554 17.5513 4.77628 17.5 5.72524C17.5 7.90249 15.2897 11.0045 11.4362 14.2347V14.2377Z" fill="#ACACAC"/>
</svg>
