<svg width="20" height="21" viewBox="0 0 20 21" fill="none" xmlns="http://www.w3.org/2000/svg">
<path d="M13.75 14.6667C13.1717 14.6673 12.6066 14.8399 12.1266 15.1625C11.6466 15.4851 11.2733 15.9431 11.0542 16.4783C10.3647 16.285 9.63531 16.285 8.94583 16.4783C8.6798 15.8334 8.19102 15.3054 7.56846 14.9904C6.9459 14.6755 6.23095 14.5946 5.55375 14.7624C4.87655 14.9302 4.28213 15.3356 3.87868 15.9049C3.47523 16.4741 3.28958 17.1692 3.35552 17.8638C3.42145 18.5583 3.7346 19.2061 4.23795 19.6892C4.7413 20.1723 5.40139 20.4587 6.09807 20.4961C6.79475 20.5335 7.4817 20.3195 8.03388 19.893C8.58605 19.4666 8.96675 18.856 9.10667 18.1725C9.39366 18.0689 9.69506 18.0107 10 18C10.3049 18.0106 10.6064 18.0688 10.8933 18.1725C11.0048 18.7127 11.2671 19.2103 11.6499 19.6075C12.0327 20.0046 12.5203 20.2851 13.0561 20.4163C13.5919 20.5475 14.1539 20.5241 14.6769 20.3487C15.1999 20.1734 15.6625 19.8534 16.011 19.4257C16.3594 18.9981 16.5794 18.4804 16.6455 17.9328C16.7116 17.3851 16.6211 16.83 16.3843 16.3317C16.1476 15.8335 15.7745 15.4126 15.3082 15.1179C14.8419 14.8231 14.3016 14.6667 13.75 14.6667ZM6.25 18.8333C6.00277 18.8333 5.7611 18.76 5.55554 18.6227C5.34998 18.4853 5.18976 18.2901 5.09515 18.0617C5.00054 17.8333 4.97579 17.5819 5.02402 17.3395C5.07225 17.097 5.1913 16.8743 5.36612 16.6995C5.54093 16.5246 5.76366 16.4056 6.00614 16.3574C6.24861 16.3091 6.49995 16.3339 6.72835 16.4285C6.95676 16.5231 7.15199 16.6833 7.28934 16.8889C7.42669 17.0944 7.5 17.3361 7.5 17.5833C7.5 17.9149 7.3683 18.2328 7.13388 18.4672C6.89946 18.7016 6.58152 18.8333 6.25 18.8333ZM13.75 18.8333C13.5028 18.8333 13.2611 18.76 13.0555 18.6227C12.85 18.4853 12.6898 18.2901 12.5951 18.0617C12.5005 17.8333 12.4758 17.5819 12.524 17.3395C12.5722 17.097 12.6913 16.8743 12.8661 16.6995C13.0409 16.5246 13.2637 16.4056 13.5061 16.3574C13.7486 16.3091 13.9999 16.3339 14.2284 16.4285C14.4568 16.5231 14.652 16.6833 14.7893 16.8889C14.9267 17.0944 15 17.3361 15 17.5833C15 17.9149 14.8683 18.2328 14.6339 18.4672C14.3995 18.7016 14.0815 18.8333 13.75 18.8333ZM16.6458 7.72917C16.4242 1.01 12.75 0.521667 12.5875 0.505C12.5585 0.501673 12.5292 0.500004 12.5 0.5C11.7773 0.528707 11.0782 0.765402 10.4867 1.18167C10.3441 1.28138 10.1744 1.33485 10.0004 1.33485C9.82646 1.33485 9.65671 1.28138 9.51417 1.18167C8.92231 0.765463 8.22297 0.528783 7.5 0.5C7.47215 0.500159 7.44433 0.501828 7.41667 0.505C7.255 0.521667 3.58333 1.01 3.35833 7.72917C2.24417 8.10167 0 9.03583 0 10.5C0 13.575 5.16167 13.8333 10 13.8333C14.8383 13.8333 20 13.575 20 10.5C20 9.03583 17.7558 8.10167 16.6458 7.72917ZM7.54583 2.17083C7.90946 2.21001 8.25752 2.33949 8.55833 2.5475C8.98139 2.84242 9.4847 3.00054 10.0004 3.00054C10.5161 3.00054 11.0194 2.84242 11.4425 2.5475C11.7413 2.3409 12.0865 2.2115 12.4475 2.17083C12.8183 2.25917 14.8717 2.97417 14.9942 7.88583C13.4262 8.58705 11.7159 8.91154 10 8.83333C8.28424 8.91149 6.57397 8.5873 5.00583 7.88667C5.12917 2.93333 7.215 2.25 7.54583 2.17083ZM10 12.1667C3.1125 12.1667 1.66667 11.26 1.65667 10.5683C2.31566 9.92064 3.14022 9.46684 4.04 9.25667C5.88867 10.171 7.93994 10.5989 10 10.5C12.0601 10.5989 14.1113 10.171 15.96 9.25667C16.8388 9.47632 17.6524 9.90258 18.3333 10.5C18.3333 11.26 16.8875 12.1667 10 12.1667Z" fill="black"/>
</svg>
