<svg width="20" height="25" viewBox="0 0 20 25" fill="none" xmlns="http://www.w3.org/2000/svg">
<path d="M11.7717 1.74476H10.411V1.75488C9.64318 1.85711 8.89038 2.04572 8.17021 2.31753C7.02841 2.74847 5.99096 3.38013 5.11707 4.17641C4.24317 4.97268 3.54996 5.918 3.07701 6.95838C2.60406 7.99877 2.36063 9.11386 2.36063 10.24C2.36063 11.3661 2.60405 12.4812 3.077 13.5216C3.54995 14.5619 4.24315 15.5073 5.11707 16.3036C5.99096 17.0998 7.02841 17.7315 8.17021 18.1624C8.89038 18.4342 9.64318 18.6228 10.411 18.7251V18.7402H11.7717V18.7635C11.7717 19.4768 11.1344 20.0637 10.3584 19.9701C9.42961 19.8581 8.51881 19.6359 7.64951 19.3078C6.34266 18.8146 5.15519 18.0916 4.15493 17.1802C3.1547 16.2688 2.36127 15.1868 1.81994 13.996C1.27862 12.8052 0.999998 11.5289 1 10.24C1 8.95106 1.27862 7.67475 1.81995 6.48393C2.36128 5.29314 3.15471 4.21115 4.15496 3.29972C5.15519 2.38833 6.34266 1.66536 7.64954 1.17211C8.51884 0.844023 9.42964 0.621842 10.3584 0.509839C11.1344 0.416261 11.7717 1.0032 11.7717 1.71644V1.74476Z" fill="black"/>
<path fill-rule="evenodd" clip-rule="evenodd" d="M6.48644 12.6895C6.48644 10.8967 7.95227 9.44339 9.76046 9.44339C9.98321 9.44339 10.2008 9.46544 10.411 9.50747C11.9076 9.80661 13.0345 11.1176 13.0345 12.6895C13.0345 14.2615 11.9076 15.5725 10.411 15.8716C10.2008 15.9136 9.98321 15.9357 9.76046 15.9357C7.95227 15.9357 6.48644 14.4823 6.48644 12.6895ZM9.76046 10.6491C8.62389 10.6491 7.70251 11.5626 7.70251 12.6895C7.70251 13.8164 8.62389 14.73 9.76046 14.73C9.98781 14.73 10.2065 14.6934 10.411 14.6259C11.2288 14.356 11.8184 13.591 11.8184 12.6895C11.8184 11.788 11.2288 11.0231 10.411 10.7532C10.2065 10.6857 9.98781 10.6491 9.76046 10.6491Z" fill="black"/>
<path d="M8.22834 23.2577H9.58897V23.2451C10.3568 23.1429 11.1096 22.9543 11.8298 22.6825C12.9716 22.2515 14.0091 21.6199 14.883 20.8236C15.7569 20.0273 16.4501 19.082 16.923 18.0416C17.396 17.0012 17.6394 15.8861 17.6394 14.76C17.6394 13.6339 17.396 12.5188 16.923 11.4784C16.4501 10.4381 15.7569 9.49275 14.883 8.69647C14.0091 7.90019 12.9716 7.26855 11.8298 6.83759C11.1096 6.5658 10.3568 6.37717 9.58897 6.27494V6.26863C9.58061 6.26667 9.5723 6.26458 9.56406 6.26233H8.22834V6.2365C8.22834 5.52326 8.8656 4.93633 9.64161 5.02991C9.69207 5.03598 9.74247 5.04241 9.79281 5.04912C9.84069 5.05127 9.88729 5.05791 9.93208 5.0686C10.7602 5.18948 11.572 5.39836 12.3505 5.69219C13.6574 6.18544 14.8448 6.90839 15.8451 7.81981C16.8453 8.73121 17.6387 9.81321 18.1801 11.004C18.7214 12.1948 19 13.4711 19 14.76C19 16.049 18.7214 17.3253 18.1801 18.5161C17.6387 19.7069 16.8453 20.7889 15.8451 21.7003C14.8448 22.6117 13.6573 23.3347 12.3505 23.8279C11.4812 24.156 10.5704 24.3782 9.64158 24.4902C8.8656 24.5837 8.22834 23.9968 8.22834 23.2836V23.2577Z" fill="black"/>
<path d="M11.7717 1.74476H10.411V1.75488C9.64318 1.85711 8.89038 2.04572 8.17021 2.31753C7.02841 2.74847 5.99096 3.38013 5.11707 4.17641C4.24317 4.97268 3.54996 5.918 3.07701 6.95838C2.60406 7.99877 2.36063 9.11386 2.36063 10.24C2.36063 11.3661 2.60405 12.4812 3.077 13.5216C3.54995 14.5619 4.24315 15.5073 5.11707 16.3036C5.99096 17.0998 7.02841 17.7315 8.17021 18.1624C8.89038 18.4342 9.64318 18.6228 10.411 18.7251V18.7402H11.7717V18.7635C11.7717 19.4768 11.1344 20.0637 10.3584 19.9701C9.42961 19.8581 8.51881 19.6359 7.64951 19.3078C6.34266 18.8146 5.15519 18.0916 4.15493 17.1802C3.1547 16.2688 2.36127 15.1868 1.81994 13.996C1.27862 12.8052 0.999998 11.5289 1 10.24C1 8.95106 1.27862 7.67475 1.81995 6.48393C2.36128 5.29314 3.15471 4.21115 4.15496 3.29972C5.15519 2.38833 6.34266 1.66536 7.64954 1.17211C8.51884 0.844023 9.42964 0.621842 10.3584 0.509839C11.1344 0.416261 11.7717 1.0032 11.7717 1.71644V1.74476Z" stroke="black" stroke-width="0.65"/>
<path fill-rule="evenodd" clip-rule="evenodd" d="M6.48644 12.6895C6.48644 10.8967 7.95227 9.44339 9.76046 9.44339C9.98321 9.44339 10.2008 9.46544 10.411 9.50747C11.9076 9.80661 13.0345 11.1176 13.0345 12.6895C13.0345 14.2615 11.9076 15.5725 10.411 15.8716C10.2008 15.9136 9.98321 15.9357 9.76046 15.9357C7.95227 15.9357 6.48644 14.4823 6.48644 12.6895ZM9.76046 10.6491C8.62389 10.6491 7.70251 11.5626 7.70251 12.6895C7.70251 13.8164 8.62389 14.73 9.76046 14.73C9.98781 14.73 10.2065 14.6934 10.411 14.6259C11.2288 14.356 11.8184 13.591 11.8184 12.6895C11.8184 11.788 11.2288 11.0231 10.411 10.7532C10.2065 10.6857 9.98781 10.6491 9.76046 10.6491Z" stroke="black" stroke-width="0.65"/>
<path d="M8.22834 23.2577H9.58897V23.2451C10.3568 23.1429 11.1096 22.9543 11.8298 22.6825C12.9716 22.2515 14.0091 21.6199 14.883 20.8236C15.7569 20.0273 16.4501 19.082 16.923 18.0416C17.396 17.0012 17.6394 15.8861 17.6394 14.76C17.6394 13.6339 17.396 12.5188 16.923 11.4784C16.4501 10.4381 15.7569 9.49275 14.883 8.69647C14.0091 7.90019 12.9716 7.26855 11.8298 6.83759C11.1096 6.5658 10.3568 6.37717 9.58897 6.27494V6.26863C9.58061 6.26667 9.5723 6.26458 9.56406 6.26233H8.22834V6.2365C8.22834 5.52326 8.8656 4.93633 9.64161 5.02991C9.69207 5.03598 9.74247 5.04241 9.79281 5.04912C9.84069 5.05127 9.88729 5.05791 9.93208 5.0686C10.7602 5.18948 11.572 5.39836 12.3505 5.69219C13.6574 6.18544 14.8448 6.90839 15.8451 7.81981C16.8453 8.73121 17.6387 9.81321 18.1801 11.004C18.7214 12.1948 19 13.4711 19 14.76C19 16.049 18.7214 17.3253 18.1801 18.5161C17.6387 19.7069 16.8453 20.7889 15.8451 21.7003C14.8448 22.6117 13.6573 23.3347 12.3505 23.8279C11.4812 24.156 10.5704 24.3782 9.64158 24.4902C8.8656 24.5837 8.22834 23.9968 8.22834 23.2836V23.2577Z" stroke="black" stroke-width="0.65"/>
</svg>
