<svg width="22" height="22" viewBox="0 0 22 22" fill="none" xmlns="http://www.w3.org/2000/svg">
<g filter="url(#filter0_i_110_459)">
<path fill-rule="evenodd" clip-rule="evenodd" d="M0.916667 4.3544H3.42467C3.62142 5.07833 4.05091 5.71739 4.64688 6.17301C5.24286 6.62862 5.97219 6.87548 6.72237 6.87548C7.47256 6.87548 8.20189 6.62862 8.79787 6.17301C9.39384 5.71739 9.82333 5.07833 10.0201 4.3544H21.0833C21.3264 4.3544 21.5596 4.25783 21.7315 4.08592C21.9034 3.91401 22 3.68085 22 3.43774C22 3.19462 21.9034 2.96146 21.7315 2.78956C21.5596 2.61765 21.3264 2.52107 21.0833 2.52107H10.0201C9.82333 1.79715 9.39384 1.15808 8.79787 0.702467C8.20189 0.24685 7.47256 0 6.72237 0C5.97219 0 5.24286 0.24685 4.64688 0.702467C4.05091 1.15808 3.62142 1.79715 3.42467 2.52107H0.916667C0.673552 2.52107 0.440394 2.61765 0.268485 2.78956C0.0965771 2.96146 0 3.19462 0 3.43774C0 3.68085 0.0965771 3.91401 0.268485 4.08592C0.440394 4.25783 0.673552 4.3544 0.916667 4.3544ZM6.72192 1.83357C7.03919 1.83357 7.34934 1.92765 7.61314 2.10392C7.87695 2.28019 8.08256 2.53073 8.20397 2.82385C8.32539 3.11697 8.35716 3.43952 8.29526 3.7507C8.23336 4.06187 8.08058 4.34771 7.85623 4.57205C7.63189 4.7964 7.34605 4.94918 7.03487 5.01108C6.7237 5.07298 6.40115 5.04121 6.10803 4.91979C5.81491 4.79838 5.56437 4.59277 5.3881 4.32897C5.21183 4.06516 5.11775 3.75501 5.11775 3.43774C5.11824 3.01244 5.2874 2.60469 5.58814 2.30396C5.88887 2.00322 6.29661 1.83406 6.72192 1.83357Z" fill="#3DE776"/>
<path fill-rule="evenodd" clip-rule="evenodd" d="M21.0833 10.0837H18.5753C18.3789 9.35958 17.9496 8.72029 17.3537 8.26448C16.7577 7.80867 16.0283 7.56171 15.2781 7.56171C14.5278 7.56171 13.7984 7.80867 13.2025 8.26448C12.6066 8.72029 12.1773 9.35958 11.9808 10.0837H0.916667C0.673552 10.0837 0.440394 10.1802 0.268485 10.3522C0.0965771 10.5241 0 10.7572 0 11.0003C0 11.2435 0.0965771 11.4766 0.268485 11.6485C0.440394 11.8204 0.673552 11.917 0.916667 11.917H11.9808C12.1773 12.6411 12.6066 13.2804 13.2025 13.7362C13.7984 14.192 14.5278 14.439 15.2781 14.439C16.0283 14.439 16.7577 14.192 17.3537 13.7362C17.9496 13.2804 18.3789 12.6411 18.5753 11.917H21.0833C21.3264 11.917 21.5596 11.8204 21.7315 11.6485C21.9034 11.4766 22 11.2435 22 11.0003C22 10.7572 21.9034 10.5241 21.7315 10.3522C21.5596 10.1802 21.3264 10.0837 21.0833 10.0837ZM15.2781 12.6045C14.9608 12.6045 14.6507 12.5104 14.3869 12.3342C14.1231 12.1579 13.9174 11.9073 13.796 11.6142C13.6746 11.3211 13.6428 10.9986 13.7047 10.6874C13.7666 10.3762 13.9194 10.0904 14.1438 9.86602C14.3681 9.64167 14.6539 9.48889 14.9651 9.42699C15.2763 9.3651 15.5988 9.39687 15.892 9.51828C16.1851 9.6397 16.4356 9.84531 16.6119 10.1091C16.7882 10.3729 16.8822 10.6831 16.8822 11.0003C16.8818 11.4256 16.7126 11.8334 16.4119 12.1341C16.1111 12.4349 15.7034 12.604 15.2781 12.6045Z" fill="#3DE776"/>
<path fill-rule="evenodd" clip-rule="evenodd" d="M10.0201 17.6462H21.0833C21.3264 17.6462 21.5596 17.7427 21.7315 17.9146C21.9034 18.0866 22 18.3197 22 18.5628C22 18.8059 21.9034 19.0391 21.7315 19.211C21.5596 19.3829 21.3264 19.4795 21.0833 19.4795H10.0201C9.82333 20.2034 9.39384 20.8425 8.79787 21.2981C8.20189 21.7537 7.47256 22.0006 6.72237 22.0006C5.97219 22.0006 5.24286 21.7537 4.64688 21.2981C4.05091 20.8425 3.62142 20.2034 3.42467 19.4795H0.916667C0.673552 19.4795 0.440394 19.3829 0.268485 19.211C0.0965771 19.0391 0 18.8059 0 18.5628C0 18.3197 0.0965771 18.0866 0.268485 17.9146C0.440394 17.7427 0.673552 17.6462 0.916667 17.6462H3.42467C3.62142 16.9222 4.05091 16.2832 4.64688 15.8276C5.24286 15.3719 5.97219 15.1251 6.72237 15.1251C7.47256 15.1251 8.20189 15.3719 8.79787 15.8276C9.39384 16.2832 9.82333 16.9222 10.0201 17.6462ZM5.83069 19.8966C6.09449 20.0729 6.40464 20.167 6.72192 20.167C7.14715 20.1663 7.55475 19.997 7.85543 19.6963C8.15611 19.3957 8.32536 18.9881 8.32608 18.5628C8.32608 18.2456 8.232 17.9354 8.05573 17.6716C7.87946 17.4078 7.62893 17.2022 7.3358 17.0808C7.04268 16.9594 6.72014 16.9276 6.40896 16.9895C6.09778 17.0514 5.81195 17.2042 5.5876 17.4285C5.36325 17.6529 5.21047 17.9387 5.14857 18.2499C5.08668 18.5611 5.11844 18.8836 5.23986 19.1767C5.36128 19.4698 5.56689 19.7204 5.83069 19.8966Z" fill="#3DE776"/>
</g>
<defs>
<filter id="filter0_i_110_459" x="0" y="0" width="22" height="23.0006" filterUnits="userSpaceOnUse" color-interpolation-filters="sRGB">
<feFlood flood-opacity="0" result="BackgroundImageFix"/>
<feBlend mode="normal" in="SourceGraphic" in2="BackgroundImageFix" result="shape"/>
<feColorMatrix in="SourceAlpha" type="matrix" values="0 0 0 0 0 0 0 0 0 0 0 0 0 0 0 0 0 0 127 0" result="hardAlpha"/>
<feOffset dy="1"/>
<feGaussianBlur stdDeviation="2"/>
<feComposite in2="hardAlpha" operator="arithmetic" k2="-1" k3="1"/>
<feColorMatrix type="matrix" values="0 0 0 0 0 0 0 0 0 0 0 0 0 0 0 0 0 0 0.25 0"/>
<feBlend mode="normal" in2="shape" result="effect1_innerShadow_110_459"/>
</filter>
</defs>
</svg>
