<svg width="46" height="23" viewBox="0 0 46 23" fill="none" xmlns="http://www.w3.org/2000/svg">
<g filter="url(#filter0_i_110_453)">
<path d="M0 11.0003C0 4.9252 4.92487 0.000335693 11 0.000335693H35C41.0751 0.000335693 46 4.9252 46 11.0003C46 17.0755 41.0751 22.0003 35 22.0003H11C4.92487 22.0003 0 17.0755 0 11.0003Z" fill="#3DE776"/>
<g filter="url(#filter1_d_110_453)">
<path d="M20.544 9.66934V11.0863H22.663V9.66934H20.544ZM19.257 5.10633V17.1443H20.999V5.10633H19.257ZM11.925 6.26334V13.7383H13.654V6.26334H11.925ZM11.925 12.7763V14.2063H12.965C14.733 14.2063 16.67 14.1023 18.659 13.6863L18.477 12.2693C16.54 12.6593 14.681 12.7763 12.965 12.7763H11.925ZM28.07 11.0473V13.4263H29.786V11.0473H28.07ZM24.898 8.05734V9.43534H33.205V8.05734H24.898ZM24.898 5.28833V8.70734H26.614V5.28833H24.898ZM23.533 10.3323V11.7103H34.427V10.3323H23.533ZM24.872 12.7763V17.0273H33.088V12.7763H24.872ZM31.411 14.1283V15.6623H26.562V14.1283H31.411Z" fill="white"/>
</g>
</g>
<defs>
<filter id="filter0_i_110_453" x="0" y="0.000335693" width="46" height="23" filterUnits="userSpaceOnUse" color-interpolation-filters="sRGB">
<feFlood flood-opacity="0" result="BackgroundImageFix"/>
<feBlend mode="normal" in="SourceGraphic" in2="BackgroundImageFix" result="shape"/>
<feColorMatrix in="SourceAlpha" type="matrix" values="0 0 0 0 0 0 0 0 0 0 0 0 0 0 0 0 0 0 127 0" result="hardAlpha"/>
<feOffset dy="1"/>
<feGaussianBlur stdDeviation="2"/>
<feComposite in2="hardAlpha" operator="arithmetic" k2="-1" k3="1"/>
<feColorMatrix type="matrix" values="0 0 0 0 0 0 0 0 0 0 0 0 0 0 0 0 0 0 0.25 0"/>
<feBlend mode="normal" in2="shape" result="effect1_innerShadow_110_453"/>
</filter>
<filter id="filter1_d_110_453" x="7.92502" y="2.10632" width="30.502" height="20.038" filterUnits="userSpaceOnUse" color-interpolation-filters="sRGB">
<feFlood flood-opacity="0" result="BackgroundImageFix"/>
<feColorMatrix in="SourceAlpha" type="matrix" values="0 0 0 0 0 0 0 0 0 0 0 0 0 0 0 0 0 0 127 0" result="hardAlpha"/>
<feOffset dy="1"/>
<feGaussianBlur stdDeviation="2"/>
<feComposite in2="hardAlpha" operator="out"/>
<feColorMatrix type="matrix" values="0 0 0 0 0 0 0 0 0 0 0 0 0 0 0 0 0 0 0.25 0"/>
<feBlend mode="normal" in2="BackgroundImageFix" result="effect1_dropShadow_110_453"/>
<feBlend mode="normal" in="SourceGraphic" in2="effect1_dropShadow_110_453" result="shape"/>
</filter>
</defs>
</svg>
