<svg width="15" height="21" viewBox="0 0 15 21" fill="none" xmlns="http://www.w3.org/2000/svg">
<path fill-rule="evenodd" clip-rule="evenodd" d="M4.72215 9.65735C5.54439 10.2068 6.51109 10.5 7.5 10.5C8.82568 10.4987 10.0967 9.97147 11.0341 9.03407C11.9715 8.09668 12.4987 6.82568 12.5 5.5C12.5 4.5111 12.2068 3.5444 11.6573 2.72215C11.1079 1.89991 10.327 1.25904 9.41342 0.880605C8.49979 0.502166 7.49445 0.40315 6.52455 0.596076C5.55464 0.789002 4.66373 1.26521 3.96447 1.96447C3.2652 2.66373 2.789 3.55465 2.59607 4.52455C2.40315 5.49446 2.50216 6.49979 2.8806 7.41342C3.25904 8.32705 3.8999 9.10794 4.72215 9.65735ZM5.6481 2.72844C6.19626 2.36217 6.84073 2.16667 7.5 2.16667C8.38406 2.16667 9.2319 2.51786 9.85702 3.14298C10.4821 3.7681 10.8333 4.61595 10.8333 5.5C10.8333 6.15927 10.6378 6.80374 10.2716 7.3519C9.90529 7.90007 9.3847 8.32731 8.77561 8.5796C8.16652 8.83189 7.4963 8.8979 6.8497 8.76929C6.2031 8.64067 5.60915 8.3232 5.14298 7.85703C4.6768 7.39085 4.35933 6.79691 4.23072 6.1503C4.1021 5.5037 4.16811 4.83348 4.4204 4.22439C4.67269 3.6153 5.09994 3.09471 5.6481 2.72844Z" fill="black"/>
<path d="M13.3333 20.5H15V16.2975C14.9987 15.2023 14.563 14.1524 13.7886 13.378C13.0143 12.6036 11.9643 12.168 10.8692 12.1667H4.13083C3.03567 12.168 1.98575 12.6036 1.21135 13.378C0.43696 14.1524 0.00132319 15.2023 0 16.2975V20.5H1.66667V16.2975C1.66733 15.6442 1.92716 15.0178 2.38914 14.5558C2.85111 14.0938 3.4775 13.834 4.13083 13.8333H10.8692C11.5225 13.834 12.1489 14.0938 12.6109 14.5558C13.0728 15.0178 13.3327 15.6442 13.3333 16.2975V20.5Z" fill="black"/>
</svg>
